<svg width="73" height="73" viewBox="0 0 73 73" fill="none" xmlns="http://www.w3.org/2000/svg">
<circle cx="36.5" cy="36.5" r="36.5" fill="#178629"/>
<path d="M24.4 27.831C24.4 26.6346 25.3402 25.6648 26.5 25.6648H47.5C48.6598 25.6648 49.6 26.6346 49.6 27.831C49.6 29.0274 48.6598 29.9972 47.5 29.9972H26.5C25.3402 29.9972 24.4 29.0274 24.4 27.831Z" fill="white"/>
<path d="M26.5 34.3296C25.3402 34.3296 24.4 35.2994 24.4 36.4958C24.4 37.6922 25.3402 38.662 26.5 38.662H34.9C36.0598 38.662 37 37.6922 37 36.4958C37 35.2994 36.0598 34.3296 34.9 34.3296H26.5Z" fill="white"/>
<path fill-rule="evenodd" clip-rule="evenodd" d="M49.6 47.3268H53.8C56.1196 47.3268 58 45.3871 58 42.9944V21.3324C58 18.9397 56.1196 17 53.8 17H20.2C17.8804 17 16 18.9397 16 21.3324V42.9944C16 45.3871 17.8804 47.3268 20.2 47.3268H37V51.6592C37 55.8227 42.1382 57.5894 44.56 54.2586L49.6 47.3268ZM41.2 42.9944V51.6592L47.5 42.9944H53.8V21.3324H20.2V42.9944H41.2Z" fill="white"/>
</svg>
