<svg width="149" height="31" viewBox="0 0 149 31" fill="none" xmlns="http://www.w3.org/2000/svg">
<path fill-rule="evenodd" clip-rule="evenodd" d="M15.273 2.90243C15.0413 2.40886 14.5452 2.09369 14 2.09369C13.4548 2.09369 12.9587 2.40886 12.727 2.90243L9.80116 9.13592L3.28761 10.1311C2.76659 10.2107 2.33382 10.575 2.1665 11.0748C1.99917 11.5746 2.12539 12.126 2.49347 12.5033L7.24784 17.3761L6.12274 24.2735C6.03604 24.805 6.26049 25.3394 6.70073 25.6495C7.14097 25.9597 7.71967 25.9912 8.19098 25.7307L14 22.5195L19.809 25.7307C20.2803 25.9912 20.859 25.9597 21.2993 25.6495C21.7395 25.3394 21.964 24.805 21.8773 24.2735L20.7522 17.3761L25.5065 12.5033C25.8746 12.126 26.0008 11.5746 25.8335 11.0748C25.6662 10.575 25.2334 10.2107 24.7124 10.1311L18.1988 9.13592L15.273 2.90243ZM12.0283 11.0102L14 6.80956L15.9717 11.0102C16.1709 11.4347 16.5687 11.732 17.0323 11.8028L21.5823 12.498L18.2435 15.92C17.9318 16.2395 17.7902 16.6879 17.8621 17.1285L18.6352 21.8682L14.6803 19.682C14.257 19.448 13.743 19.448 13.3197 19.682L9.36477 21.8682L10.1379 17.1285C10.2098 16.6879 10.0682 16.2395 9.75654 15.92L6.41774 12.498L10.9677 11.8028C11.4313 11.732 11.8291 11.4347 12.0283 11.0102Z" fill="#694F1D"/>
<path fill-rule="evenodd" clip-rule="evenodd" d="M127.273 2.90243C127.041 2.40886 126.545 2.09369 126 2.09369C125.455 2.09369 124.959 2.40886 124.727 2.90243L121.801 9.13592L115.288 10.1311C114.767 10.2107 114.334 10.575 114.166 11.0748C113.999 11.5746 114.125 12.126 114.493 12.5033L119.248 17.3761L118.123 24.2735C118.036 24.805 118.26 25.3394 118.701 25.6495C119.141 25.9597 119.72 25.9912 120.191 25.7307L126 22.5195L131.809 25.7307C132.28 25.9912 132.859 25.9597 133.299 25.6495C133.74 25.3394 133.964 24.805 133.877 24.2735L132.752 17.3761L137.507 12.5033C137.875 12.126 138.001 11.5746 137.834 11.0748C137.666 10.575 137.233 10.2107 136.712 10.1311L130.199 9.13592L127.273 2.90243ZM124.028 11.0102L126 6.80956L127.972 11.0102C128.171 11.4347 128.569 11.732 129.032 11.8028L133.582 12.498L130.243 15.92C129.932 16.2395 129.79 16.6879 129.862 17.1285L130.635 21.8682L126.68 19.682C126.257 19.448 125.743 19.448 125.32 19.682L121.365 21.8682L122.138 17.1285C122.21 16.6879 122.068 16.2395 121.757 15.92L118.418 12.498L122.968 11.8028C123.431 11.732 123.829 11.4347 124.028 11.0102Z" fill="black"/>
<path fill-rule="evenodd" clip-rule="evenodd" d="M15.273 2.90249C15.0413 2.40892 14.5452 2.09375 14 2.09375C13.4548 2.09375 12.9587 2.40892 12.727 2.90249L9.80116 9.13599L3.28761 10.1312C2.76659 10.2108 2.33382 10.5751 2.1665 11.0749C1.99917 11.5747 2.12539 12.1261 2.49347 12.5033L7.24784 17.3762L6.12274 24.2736C6.03604 24.8051 6.26049 25.3394 6.70073 25.6496C7.14097 25.9598 7.71967 25.9913 8.19098 25.7307L14 22.5196L19.809 25.7307C20.2803 25.9913 20.859 25.9598 21.2993 25.6496C21.7395 25.3394 21.964 24.8051 21.8773 24.2736L20.7522 17.3762L25.5065 12.5033C25.8746 12.1261 26.0008 11.5747 25.8335 11.0749C25.6662 10.5751 25.2334 10.2108 24.7124 10.1312L18.1988 9.13599L15.273 2.90249ZM12.0283 11.0103L14 6.80962L15.9717 11.0103C16.1709 11.4348 16.5687 11.7321 17.0323 11.8029L21.5823 12.4981L18.2435 15.9201C17.9318 16.2395 17.7902 16.688 17.8621 17.1285L18.6352 21.8683L14.6803 19.682C14.257 19.448 13.743 19.448 13.3197 19.682L9.36477 21.8683L10.1379 17.1285C10.2098 16.688 10.0682 16.2395 9.75654 15.9201L6.41774 12.4981L10.9677 11.8029C11.4313 11.7321 11.8291 11.4348 12.0283 11.0103Z" fill="#694F1D"/>
<path fill-rule="evenodd" clip-rule="evenodd" d="M127.273 2.90249C127.041 2.40892 126.545 2.09375 126 2.09375C125.455 2.09375 124.959 2.40892 124.727 2.90249L121.801 9.13599L115.288 10.1312C114.767 10.2108 114.334 10.5751 114.166 11.0749C113.999 11.5747 114.125 12.1261 114.493 12.5033L119.248 17.3762L118.123 24.2736C118.036 24.8051 118.26 25.3394 118.701 25.6496C119.141 25.9598 119.72 25.9913 120.191 25.7307L126 22.5196L131.809 25.7307C132.28 25.9913 132.859 25.9598 133.299 25.6496C133.74 25.3394 133.964 24.8051 133.877 24.2736L132.752 17.3762L137.507 12.5033C137.875 12.1261 138.001 11.5747 137.834 11.0749C137.666 10.5751 137.233 10.2108 136.712 10.1312L130.199 9.13599L127.273 2.90249ZM124.028 11.0103L126 6.80962L127.972 11.0103C128.171 11.4348 128.569 11.7321 129.032 11.8029L133.582 12.4981L130.243 15.9201C129.932 16.2395 129.79 16.688 129.862 17.1285L130.635 21.8683L126.68 19.682C126.257 19.448 125.743 19.448 125.32 19.682L121.365 21.8683L122.138 17.1285C122.21 16.688 122.068 16.2395 121.757 15.9201L118.418 12.4981L122.968 11.8029C123.431 11.7321 123.829 11.4348 124.028 11.0103Z" fill="black"/>
<path fill-rule="evenodd" clip-rule="evenodd" d="M98.7647 2.88511C98.5293 2.40098 98.0383 2.09369 97.5 2.09369C96.9617 2.09369 96.4706 2.40098 96.2353 2.88511L93.1994 9.12991L86.4198 10.13C85.8926 10.2078 85.4547 10.5768 85.2887 11.0831C85.1227 11.5894 85.2571 12.146 85.6358 12.5208L90.5542 17.3879L89.3923 24.2657C89.3029 24.7944 89.5221 25.3279 89.9573 25.6412C90.3925 25.9545 90.9679 25.993 91.441 25.7405L97.5 22.5067L103.559 25.7405C104.032 25.993 104.608 25.9545 105.043 25.6412C105.478 25.3279 105.697 24.7944 105.608 24.2657L104.446 17.3879L109.364 12.5208C109.743 12.146 109.877 11.5894 109.711 11.0831C109.545 10.5768 109.107 10.2078 108.58 10.13L101.801 9.12991L98.7647 2.88511ZM95.4041 11.0275L97.5 6.71634L99.5958 11.0275C99.799 11.4455 100.196 11.7361 100.655 11.8039L105.385 12.5016L101.948 15.9025C101.623 16.2246 101.475 16.6849 101.551 17.1363L102.358 21.9113L98.1621 19.6721C97.7483 19.4512 97.2516 19.4512 96.8378 19.6721L92.6424 21.9113L93.4491 17.1363C93.5253 16.6849 93.3771 16.2246 93.0516 15.9025L89.6149 12.5016L94.3446 11.8039C94.8044 11.7361 95.201 11.4455 95.4041 11.0275Z" fill="#694F1D"/>
<path fill-rule="evenodd" clip-rule="evenodd" d="M72.273 2.90243C72.0413 2.40886 71.5452 2.09369 71 2.09369C70.4548 2.09369 69.9587 2.40886 69.727 2.90243L66.8012 9.13592L60.2876 10.1311C59.7666 10.2107 59.3338 10.575 59.1665 11.0748C58.9992 11.5746 59.1254 12.126 59.4935 12.5033L64.2478 17.3761L63.1227 24.2735C63.036 24.805 63.2605 25.3394 63.7007 25.6495C64.141 25.9597 64.7197 25.9912 65.191 25.7307L71 22.5195L76.809 25.7307C77.2803 25.9912 77.859 25.9597 78.2993 25.6495C78.7395 25.3394 78.964 24.805 78.8773 24.2735L77.7522 17.3761L82.5065 12.5033C82.8746 12.126 83.0008 11.5746 82.8335 11.0748C82.6662 10.575 82.2334 10.2107 81.7124 10.1311L75.1988 9.13592L72.273 2.90243ZM69.0283 11.0102L71 6.80956L72.9717 11.0102C73.1709 11.4347 73.5687 11.732 74.0323 11.8028L78.5823 12.498L75.2435 15.92C74.9318 16.2395 74.7902 16.6879 74.8621 17.1285L75.6352 21.8682L71.6803 19.682C71.257 19.448 70.743 19.448 70.3197 19.682L66.3648 21.8682L67.1379 17.1285C67.2098 16.6879 67.0682 16.2395 66.7565 15.92L63.4177 12.498L67.9677 11.8028C68.4313 11.732 68.8291 11.4347 69.0283 11.0102Z" fill="#694F1D"/>
<path fill-rule="evenodd" clip-rule="evenodd" d="M43.7647 2.88511C43.5294 2.40098 43.0383 2.09369 42.5 2.09369C41.9617 2.09369 41.4706 2.40098 41.2353 2.88511L38.1995 9.12991L31.4198 10.13C30.8927 10.2078 30.4548 10.5768 30.2888 11.0831C30.1227 11.5894 30.2571 12.146 30.6359 12.5208L35.5542 17.3879L34.3923 24.2657C34.303 24.7944 34.5221 25.3279 34.9573 25.6412C35.3925 25.9545 35.968 25.993 36.441 25.7405L42.5 22.5067L48.559 25.7405C49.0321 25.993 49.6075 25.9545 50.0427 25.6412C50.4779 25.3279 50.6971 24.7944 50.6077 24.2657L49.4458 17.3879L54.3642 12.5208C54.7429 12.146 54.8773 11.5894 54.7113 11.0831C54.5452 10.5768 54.1073 10.2078 53.5802 10.13L46.8006 9.12991L43.7647 2.88511ZM40.4042 11.0275L42.5 6.71634L44.5958 11.0275C44.799 11.4455 45.1956 11.7361 45.6553 11.8039L50.3851 12.5016L46.9484 15.9025C46.6229 16.2246 46.4746 16.6849 46.5509 17.1363L47.3576 21.9113L43.1622 19.6721C42.7483 19.4512 42.2517 19.4512 41.8379 19.6721L37.6424 21.9113L38.4491 17.1363C38.5254 16.6849 38.3771 16.2246 38.0517 15.9025L34.615 12.5016L39.3447 11.8039C39.8044 11.7361 40.201 11.4455 40.4042 11.0275Z" fill="#694F1D"/>
</svg>
